Poster: 
http://imgr.us/images/ovshq9n1kzeahnu70cup.jpg


Info:
Format : AVI
Format/Info : Audio Video Interleave
File size : 1.39 GB
Duration : 2h 23mn
Overall bit rate mode : Variable
Overall bit rate : 1 540 Kbps
Writing application : VirtualDubMod 1.5.10.2 (build 2540/release)
Writing library : VirtualDubMod build 2540/release

Video
ID : 0
Format : MPEG-4 Visual
Format profile : Advanced Simple@L5
Format settings, BVOP : 2
Format settings, QPel : No
Format settings, GMC : No warppoints
Format settings, Matrix : Default (H.263)
Codec ID : XVID
Codec ID/Hint : XviD
Duration : 1h 3mn
Source duration : 34mn 55s
Bit rate : 1 303 Kbps
Width : 640 pixels
Height : 272 pixels
Display aspect ratio : 2.35:1
Frame rate : 25.000 fps
Color space : YUV
Chroma subsampling : 4:2:0
Bit depth : 8 bits
Scan type : Progressive
Compression mode : Lossy
Bits/(Pixel*Frame) : 0.300
Stream size : 326 MiB (46%)
Writing library : XviD 1.2.1 (UTC 2008-12-04)

Audio
ID : 1
Format : MPEG Audio
Format version : Version 1
Format profile : Layer 3
Mode : Joint stereo
Mode extension : MS Stereo
Codec ID : 55
Codec ID/Hint : MP3
Duration : 1h 3mn
Source duration : 34mn 38s
Bit rate mode : Variable
Bit rate : 120 Kbps
Channel(s) : 2 channels
Sampling rate : 48.0 KHz
Compression mode : Lossy
Stream size : 30.5 MiB (4%)
Alignment : Aligned on interleaves
Interleave, duration : 24 ms (0.60 video frame)
Interleave, preload duration : 514 ms
Writing library : L3.99r
Encoding settings : -m j -V 4 -q 3 -lowpass 17 --abr 120


Screens:
 
http://imgr.us/images/xu7xzvhyorevzlq33aez.jpeg 
http://imgr.us/images/uykeh9tfw6ui7nw6679.jpeg 
http://imgr.us/images/gf8sbvm2ki5772xmyf9.jpeg 
http://imgr.us/images/elehgqdm2m1mhzw94318.jpeg 
http://imgr.us/images/oqhjuc3evk3vembwsjaa.jpeg